<?xml version="1.0" standalone="no"?>
<!DOCTYPE svg PUBLIC "-//W3C//DTD SVG 20010904//EN"
 "http://www.w3.org/TR/2001/REC-SVG-20010904/DTD/svg10.dtd">
<svg version="1.0" xmlns="http://www.w3.org/2000/svg"
 width="493.000000pt" height="493.000000pt" viewBox="0 0 493.000000 493.000000"
 preserveAspectRatio="xMidYMid meet">
<metadata>
Created by potrace 1.11, written by Peter Selinger 2001-2013
</metadata>
<g transform="translate(0.000000,493.000000) scale(0.100000,-0.100000)"
fill="#000000" stroke="none">
<path d="M623 3541 c-337 -582 -613 -1064 -613 -1071 0 -7 276 -489 612 -1071
l613 -1059 1230 0 1230 0 613 1059 c336 582 612 1064 612 1071 0 7 -276 489
-613 1071 l-612 1059 -1230 0 -1230 0 -612 -1059z m3387 -178 c282 -489 513
-892 513 -898 0 -5 -231 -409 -514 -897 l-513 -888 -1031 0 -1031 0 -514 887
c-282 489 -513 893 -513 898 0 6 231 409 513 898 l514 887 1031 0 1031 0 514
-887z"/>
<path d="M1738 4110 c-158 -27 -284 -113 -388 -265 -39 -56 -573 -982 -627
-1085 -115 -223 -115 -367 0 -590 82 -158 599 -1045 647 -1110 90 -121 174
-185 295 -223 70 -22 75 -22 800 -22 726 0 730 0 800 22 195 61 328 215 545
628 35 66 128 233 208 370 240 414 276 497 275 635 -1 91 -26 173 -86 290 -82
157 -599 1044 -647 1110 -88 118 -172 183 -290 223 -64 21 -72 22 -775 23
-390 1 -731 -2 -757 -6z m950 -550 c201 -21 327 -60 443 -136 102 -67 165
-158 210 -304 21 -66 24 -94 24 -245 0 -195 -11 -251 -75 -381 -48 -99 -141
-192 -243 -243 -37 -19 -67 -35 -67 -37 0 -2 110 -158 244 -347 134 -189 251
-356 261 -370 l17 -27 -290 0 -291 0 -233 335 -232 335 -158 0 -158 0 0 -335
0 -335 -240 0 -240 0 0 1043 c0 574 3 1047 7 1050 10 11 917 8 1021 -3z"/>
<path d="M2140 2854 l0 -306 258 4 c306 5 340 13 412 87 71 73 98 206 66 330
-41 160 -121 191 -503 191 l-233 0 0 -306z"/>
</g>
</svg>
